Coordinates
version=1
nRows=26
nColumns=22
inDegrees=yes

Units are S.I. units (second, meters, Newtons, ...)
If the header above contains a line with 'inDegrees', this indicates whether rotational values are in degrees (yes) or radians (no).

endheader
time	pelvis_tilt	pelvis_list	pelvis_rotation	pelvis_tx	pelvis_ty	pelvis_tz	hip_flexion_r	hip_adduction_r	hip_rotation_r	knee_angle_r	ankle_angle_r	subtalar_angle_r	hip_flexion_l	hip_adduction_l	hip_rotation_l	knee_angle_l	ankle_angle_l	subtalar_angle_l	lumbar_extension	lumbar_bending	lumbar_rotation
      6.39000000	      0.92724723	      0.40680474	    323.83069502	     -0.38724282	      0.99626271	      0.86038145	     24.07221826	     -6.12616043	      7.10540017	     -6.95500304	      6.60064725	     26.44358504	    -16.10361168	      4.14828590	     13.47799158	    -12.09371115	      9.16094696	     -3.24161498	     -3.33690806	     -7.47614067	     -8.45474872
      6.40000000	      0.96860402	      0.43585235	    324.64206495	     -0.38033182	      0.99592281	      0.86745590	     23.67981489	     -6.16801102	      7.58772391	     -7.17490563	      6.78424248	     25.98881445	    -16.44652946	      3.85242500	     13.78667259	    -12.49408950	      8.77749138	     -2.67950802	     -3.22944104	     -7.32116014	     -8.72577176
      6.41000000	      0.99615731	      0.49016659	    325.47528231	     -0.37332780	      0.99559638	      0.87455605	     23.27666816	     -6.22504528	      8.04703815	     -7.41534652	      6.85105897	     25.56100798	    -16.70845754	      3.56404208	     14.07191337	    -12.98288218	      8.29147599	     -2.18214486	     -3.08414609	     -7.17711582	     -9.00540982
      6.42000000	      0.99808553	      0.51967544	    326.30475641	     -0.36627663	      0.99534205	      0.88173432	     22.84303425	     -6.23691591	      8.48577078	     -7.65595074	      6.70287112	     25.09150062	    -16.89659778	      3.23844775	     14.25088314	    -13.57707621	      7.75229703	     -1.61173219	     -2.91884718	     -6.99229957	     -9.27371383
      6.43000000	      0.96016541	      0.52020486	    327.10345093	     -0.35923857	      0.99517105	      0.88901114	     22.42429072	     -6.18126423	      8.88958521	     -7.92846958	      6.32288644	     24.62884944	    -16.99182857	      2.87277187	     14.30265911	    -14.28468653	      7.15237419	     -0.99391234	     -2.72132712	     -6.75696996	     -9.50921499
      6.44000000	      0.89280676	      0.49649994	    327.85117601	     -0.35224120	      0.99513284	      0.89639487	     22.03828575	     -6.06435633	      9.21381732	     -8.25156430	      5.77302100	     24.17212926	    -16.98519646	      2.48564615	     14.21145451	    -15.12496169	      6.45347536	     -0.31711874	     -2.49811829	     -6.48953422	     -9.66208168
      6.45000000	      0.77915347	      0.44109636	    328.53495972	     -0.34530387	      0.99525665	      0.90387452	     21.72652436	     -5.87137771	      9.42261616	     -8.66523969	      5.06034185	     23.79459589	    -16.87476774	      2.06593908	     14.00797882	    -16.07171568	      5.63977064	      0.36274251	     -2.23582624	     -6.16972415	     -9.75530457
      6.46000000	      0.62682362	      0.35855362	    329.12641640	     -0.33844918	      0.99557232	      0.91144837	     21.50844690	     -5.60788828	      9.48963748	     -9.19747865	      4.28375995	     23.50928510	    -16.65554504	      1.63232393	     13.66470230	    -17.13332087	      4.68731347	      1.04532201	     -1.93906576	     -5.80682622	     -9.75685272
      6.47000000	      0.44518666	      0.25224794	    329.61136788	     -0.33167782	      0.99609537	      0.91909225	     21.38387461	     -5.28751301	      9.40586090	     -9.85581475	      3.53396387	     23.34556400	    -16.32813594	      1.19864187	     13.17067429	    -18.31593880	      3.58261088	      1.71866453	     -1.61440298	     -5.40667808	     -9.66833276
      6.48000000	      0.25313395	      0.11443365	    329.97398113	     -0.32501489	      0.99684148	      0.92677480	     21.33318202	     -4.91763830	      9.14817048	    -10.63344321	      2.83507568	     23.34431971	    -15.90527570	      0.77093742	     12.49281297	    -19.63281843	      2.34861464	      2.31327734	     -1.29057378	     -4.97139804	     -9.47224829
      6.49000000	      0.05648430	     -0.02118795	    330.21738725	     -0.31845911	      0.99776941	      0.93447770	     21.34527539	     -4.53597378	      8.78713080	    -11.49003111	      2.28321655	     23.41784794	    -15.37659102	      0.37746787	     11.66621780	    -21.07534922	      0.96454223	      2.99713270	     -0.95136274	     -4.53709051	     -9.19776468
      6.50000000	     -0.12475837	     -0.18471001	    330.35500662	     -0.31204217	      0.99889599	      0.94215865	     21.34713395	     -4.13352188	      8.35649380	    -12.35243697	      1.85285905	     23.57952519	    -14.76814317	     -0.01066250	     10.67651624	    -22.65789954	     -0.53390725	      3.63478670	     -0.64573954	     -4.08556968	     -8.85221542
      6.51000000	     -0.29374737	     -0.34433019	    330.41072198	     -0.30582561	      1.00015297	      0.94978328	     21.33616324	     -3.73400343	      7.93078172	    -13.18228433	      1.59689399	     23.76645301	    -14.04594170	     -0.38210112	      9.55778974	    -24.40030172	     -2.10003283	      4.31386974	     -0.36122617	     -3.65372089	     -8.47651259
      6.52000000	     -0.43631474	     -0.56009732	    330.40318243	     -0.29985317	      1.00157151	      0.95736386	     21.21438979	     -3.28465019	      7.56189126	    -13.88469134	      1.44379480	     23.89132781	    -13.24619123	     -0.80973409	      8.27299985	    -26.32216162	     -3.66651583	      4.83018607	     -0.15717675	     -3.19741984	     -8.07106450
      6.53000000	     -0.57568686	     -0.79113959	    330.37742536	     -0.29414456	      1.00306328	      0.96485215	     21.02222202	     -2.80919994	      7.28665997	    -14.47040067	      1.44835342	     23.91250312	    -12.32313885	     -1.28761351	      6.91710813	    -28.42493524	     -5.20157636	      5.26738333	      0.00544362	     -2.74876762	     -7.69312514
      6.54000000	     -0.72241941	     -1.03867915	    330.36181122	     -0.28871324	      1.00458444	      0.97224708	     20.75290081	     -2.30138265	      7.09091716	    -14.91145751	      1.57565631	     23.79030260	    -11.26558686	     -1.84231511	      5.52098129	    -30.71586272	     -6.63103793	      5.56921254	      0.13216154	     -2.31186089	     -7.35354598
      6.55000000	     -0.89687244	     -1.27350089	    330.38580836	     -0.28354113	      1.00605030	      0.97949587	     20.46283479	     -1.78302405	      6.92632383	    -15.25095881	      1.79481228	     23.41202645	    -10.04596701	     -2.46468574	      4.15264684	    -33.17723452	     -7.92491859	      5.64220778	      0.25975597	     -1.90387662	     -7.06569609
      6.56000000	     -1.06858461	     -1.54838827	    330.46679699	     -0.27855331	      1.00754625	      0.98661746	     20.06255160	     -1.22991910	      6.81065619	    -15.43504161	      2.05603701	     22.92837715	     -8.75860360	     -3.18453446	      2.87708187	    -35.73864235	     -9.03888323	      5.54592913	      0.33536111	     -1.48969604	     -6.85149235
      6.57000000	     -1.24932329	     -1.83743438	    330.61753321	     -0.27371542	      1.00900562	      0.99355463	     19.60370083	     -0.66972785	      6.70640866	    -15.50444231	      2.32443813	     22.35219693	     -7.39523194	     -3.97002974	      1.75366972	    -38.35584916	     -9.91224947	      5.32515338	      0.39091765	     -1.08576814	     -6.70794303
      6.58000000	     -1.42530018	     -2.13420220	    330.83542963	     -0.26895808	      1.01043891	      1.00029646	     19.08741813	     -0.12189821	      6.57041828	    -15.47249649	      2.57058782	     21.71156322	     -6.00204083	     -4.78474440	      0.81425125	    -40.94616002	    -10.50416832	      5.01478781	      0.42951326	     -0.70190554	     -6.61644935
      6.59000000	     -1.59538420	     -2.43656669	    331.11241294	     -0.26426095	      1.01182828	      1.00682902	     18.52936680	      0.41123675	      6.41609528	    -15.36237434	      2.79496051	     21.05528208	     -4.60348534	     -5.60306726	      0.07046392	    -43.44812719	    -10.75552843	      4.65792964	      0.45698041	     -0.33788957	     -6.57258845
      6.60000000	     -1.74254693	     -2.74250449	    331.43149958	     -0.25960665	      1.01318443	      1.01313309	     17.93803971	      0.92150387	      6.23690476	    -15.20820806	      2.97128939	     20.38892142	     -3.23932161	     -6.39035468	     -0.49000325	    -45.80115539	    -10.65321061	      4.23855742	      0.46323226	      0.00223634	     -6.55366197
      6.61000000	     -1.86671517	     -3.04380753	    331.77404422	     -0.25501167	      1.01450078	      1.01921684	     17.32751483	      1.40643344	      6.05545987	    -15.02074593	      3.09675566	     19.74319411	     -1.92485956	     -7.12577087	     -0.89997670	    -47.95607335	    -10.18981833	      3.75892006	      0.45306938	      0.31141390	     -6.54321065
      6.62000000	     -1.95378067	     -3.32733364	    332.10776340	     -0.25047470	      1.01577153	      1.02509636	     16.72100398	      1.85548021	      5.85786800	    -14.85294569	      3.20415265	     19.07863124	     -0.69069942	     -7.78607394	     -1.23280972	    -49.86942170	     -9.37369312	      3.17958908	      0.42269273	      0.57546441	     -6.50756587
      6.63000000	     -2.01346042	     -3.58637165	    332.42029195	     -0.24602025	      1.01699174	      1.03077266	     16.13160431	      2.27152393	      5.68979961	    -14.70343378	      3.26842344	     18.43845691	      0.46816150	     -8.35931718	     -1.49888088	    -51.52569810	     -8.25440086	      2.52911771	      0.38204718	      0.79531227	     -6.43528134
      6.64000000	     -2.05053347	     -3.81077005	    332.69578305	     -0.24163991	      1.01815399	      1.03627919	     15.56843926	      2.64989317	      5.54820730	    -14.57463233	      3.30985510	     17.82242722	      1.55039300	     -8.85196882	     -1.76707104	    -52.91181390	     -6.90326824	      1.83569423	      0.34563208	      0.96636994	     -6.33646566
